<?xml version="1.0" encoding="utf-8"?>
<!-- Generator: Adobe Illustrator 24.0.3, SVG Export Plug-In . SVG Version: 6.00 Build 0)  -->
<svg version="1.1" id="Capa_1" xmlns="http://www.w3.org/2000/svg" xmlns:xlink="http://www.w3.org/1999/xlink" x="0px" y="0px"
	 viewBox="0 0 478 77.13" style="enable-background:new 0 0 478 77.13;" xml:space="preserve">
<style type="text/css">
	.st0{fill-rule:evenodd;clip-rule:evenodd;fill:#FFFFFF;}
	.st1{fill:#FFFFFF;}
</style>
<g>
	<g>
		<polygon class="st0" points="274.67,50.02 274.67,74.91 279.74,74.91 279.74,64.47 284.12,64.47 284.12,74.91 289.19,74.91 
			289.19,50.02 284.12,50.02 284.12,59.97 279.74,59.97 279.74,50.02 		"/>
		<polygon class="st0" points="235.4,50.02 235.4,74.91 240.1,74.91 240.1,59.1 242.81,74.91 245.9,74.91 248.68,59.1 248.68,74.91 
			253.37,74.91 253.37,50.02 246.46,50.02 244.36,62 242.32,50.02 		"/>
		<polygon class="st0" points="206.14,50.02 209.29,61.14 212.37,50.02 217.44,50.02 211.94,66.76 211.94,74.91 206.57,74.91 
			206.57,66.76 201.13,50.02 		"/>
		<path class="st0" d="M224.78,55.64l1.23,8.83h-2.47L224.78,55.64z M228.18,50.02h-6.73L217,74.91h5.07l0.8-5.93h3.83l0.86,5.93h5
			L228.18,50.02z"/>
		<path class="st0" d="M263.99,55.64l1.23,8.83h-2.47L263.99,55.64z M267.39,50.02h-6.73l-4.45,24.89h5l0.86-5.93h3.83l0.8,5.93
			h5.07L267.39,50.02z"/>
		<path class="st0" d="M299.87,55.64l1.23,8.83h-2.47L299.87,55.64z M303.27,50.02h-6.73l-4.45,24.89h5l0.87-5.93h3.83l0.8,5.93
			h5.07L303.27,50.02z"/>
		<g>
			<defs>
				<path id="SVGID_1_" d="M169.27,62.44c0-8.09,6.61-14.7,14.69-14.7c8.09,0,14.7,6.61,14.7,14.7c0,8.09-6.61,14.7-14.7,14.7
					C175.88,77.13,169.27,70.53,169.27,62.44z"/>
			</defs>
			<clipPath id="SVGID_2_">
				<use xlink:href="#SVGID_1_"  style="overflow:visible;"/>
			</clipPath>
		</g>
		<path class="st0" d="M196.04,69.51c0,0.12-0.12,0.12-0.25,0.12l-1.98-0.43c-2.1,3.09-5.68,5.13-9.69,5.13
			c-4.02,0-7.6-2.04-9.7-5.13l-1.98,0.43c-0.12,0-0.25,0-0.31-0.12c-0.06-0.12-0.06-0.25,0.06-0.31l1.3-1.48
			c-0.74-1.54-1.11-3.27-1.11-5.12c0-6.18,4.76-11.3,10.87-11.73l0.56-1.92c0.06-0.12,0.18-0.18,0.31-0.18
			c0.12,0,0.18,0.06,0.25,0.18l0.62,1.92c6.05,0.43,10.87,5.56,10.87,11.73c0,1.85-0.43,3.58-1.17,5.12l1.36,1.48
			C196.1,69.26,196.1,69.39,196.04,69.51z M184.13,76.67c7.78,0,14.08-6.3,14.08-14.08c0-7.78-6.3-14.08-14.08-14.08
			c-7.78,0-14.08,6.3-14.08,14.08C170.05,70.37,176.34,76.67,184.13,76.67z"/>
		<path class="st0" d="M189.5,65.68c-0.25,0.49-0.93,0.68-1.42,0.37l-1.79-0.99v-1.23l1.05-0.55l1.79,0.99
			C189.62,64.57,189.81,65.19,189.5,65.68z M180.11,66.05c-0.49,0.31-1.11,0.12-1.36-0.37c-0.31-0.49-0.12-1.11,0.37-1.42l1.79-0.99
			l0.99,0.55v1.23L180.11,66.05z M183.07,57.41c0-0.62,0.49-1.05,1.05-1.05c0.55,0,0.99,0.43,0.99,1.05v2.04l-0.99,0.62l-1.05-0.62
			V57.41z M184.13,63.77l-1.05-0.62v-1.17l1.05-0.62l0.99,0.62v1.17L184.13,63.77z M195.79,69.26l-2.96-3.15
			c-0.37,0.12-0.86,0.12-1.3-0.12c-0.43-0.25-0.68-0.62-0.74-1.05c-0.06-0.68-0.43-1.3-1.05-1.67l-1.23-0.68l5.37-3.09l-0.62-1.05
			l-5.93,3.46l-1.05-0.62v-1.17l5.93-3.46l-0.55-0.99l-5.37,3.09v-1.36c0-0.74-0.31-1.42-0.87-1.79c-0.37-0.25-0.55-0.68-0.55-1.17
			c0-0.49,0.25-0.93,0.55-1.17v0l-1.23-4.13c0-0.06,0-0.06-0.06-0.06c-0.06,0-0.06,0-0.06,0.06l-1.3,4.13
			c0.37,0.25,0.62,0.68,0.62,1.18c0,0.49-0.25,0.92-0.62,1.17c-0.49,0.37-0.86,1.05-0.86,1.79v1.36l-5.31-3.09l-0.62,0.99l5.93,3.46
			v1.17l-0.99,0.62l-5.93-3.46l-0.62,1.05l5.37,3.09l-1.23,0.68c-0.62,0.37-0.99,0.99-1.05,1.67c-0.06,0.43-0.31,0.8-0.74,1.05
			c-0.43,0.25-0.93,0.25-1.36,0.12l-2.9,3.15c-0.06,0-0.06,0.06-0.06,0.06c0.06,0.06,0.06,0.06,0.12,0.06l4.2-0.99
			c0.06-0.43,0.31-0.86,0.74-1.11c0.37-0.25,0.87-0.25,1.3-0.06c0.62,0.25,1.36,0.25,1.98-0.12l1.17-0.68v6.11h1.17v-6.79l1.05-0.62
			l0.99,0.62v6.79h1.17v-6.11l1.23,0.68c0.62,0.37,1.36,0.37,1.98,0.12c0.37-0.18,0.86-0.18,1.3,0.06c0.43,0.25,0.68,0.68,0.74,1.11
			v0l4.2,0.99c0,0,0.06,0,0.06-0.06C195.86,69.32,195.86,69.26,195.79,69.26z"/>
	</g>
	<g>
		<path class="st1" d="M65.94,0c-1.52,0-2.92,0.36-4.19,1.09c-1.28,0.72-2.45,1.68-3.54,2.87l-9.67,10.57
			c-1.32,1.45-2.48,2.71-3.47,3.78c-0.99,1.08-1.87,2.05-2.64,2.92c-0.77,0.87-1.45,1.65-2.04,2.34c-0.6,0.69-1.16,1.36-1.69,2.03
			c-0.1-0.67-0.2-1.35-0.31-2.06c-0.11-0.7-0.24-1.48-0.4-2.34c-0.16-0.85-0.36-1.83-0.59-2.92c-0.23-1.09-0.5-2.37-0.8-3.81
			L34.33,3.95c-0.24-1.22-0.74-2.19-1.52-2.89C32.04,0.35,30.91,0,29.43,0c-1.45,0-2.91,0.42-4.39,1.25
			c-1.48,0.83-2.79,2.12-3.92,3.87L0,37.84h11.3l8.06-12.97c1.3-2.12,2.44-3.98,3.41-5.59c0.97-1.61,1.87-3.16,2.69-4.65
			c0.08,0.63,0.15,1.28,0.23,1.95c0.08,0.67,0.19,1.4,0.34,2.2c0.15,0.8,0.3,1.7,0.47,2.7c0.17,1,0.36,2.13,0.59,3.4l1.71,9.41
			c0.16,0.93,0.39,1.66,0.7,2.2c0.31,0.54,0.68,0.96,1.09,1.25c0.42,0.3,0.9,0.49,1.46,0.58c0.56,0.09,1.19,0.14,1.9,0.14
			c0.7,0,1.37-0.05,2-0.14c0.63-0.09,1.25-0.29,1.88-0.58c0.62-0.3,1.28-0.71,1.97-1.25c0.69-0.54,1.44-1.27,2.25-2.2l8.29-9.35
			c2.11-2.41,3.83-4.41,5.16-5.98c1.33-1.58,2.54-3.01,3.63-4.31c-0.24,1.52-0.43,3.08-0.58,4.67c-0.15,1.6-0.3,3.45-0.45,5.57
			l-1.05,12.97h11.46l2.08-32.72c0.09-1.74-0.3-3.03-1.17-3.87C68.54,0.42,67.38,0,65.94,0z"/>
		<path class="st1" d="M109.9,0c-9.09,0-16.44,1.54-22.05,4.62c-5.61,3.08-9.58,7.94-11.91,14.58c-2.34,6.68-1.8,11.56,1.62,14.64
			c3.43,3.08,9.7,4.62,18.83,4.62c9.09,0,16.44-1.54,22.05-4.62c5.61-3.08,9.58-7.96,11.93-14.64c2.33-6.64,1.77-11.5-1.7-14.58
			C125.21,1.54,118.95,0,109.9,0z M118.91,19.2c-0.7,2-1.55,3.63-2.54,4.87c-0.99,1.24-2.24,2.22-3.72,2.92
			c-1.49,0.71-3.28,1.18-5.37,1.42c-2.09,0.24-4.58,0.36-7.47,0.36c-2.89,0-5.3-0.12-7.22-0.36c-1.92-0.24-3.38-0.71-4.37-1.42
			c-1-0.7-1.55-1.68-1.67-2.92c-0.12-1.24,0.17-2.87,0.87-4.87c0.7-2,1.55-3.63,2.54-4.87c0.99-1.24,2.23-2.21,3.72-2.89
			c1.48-0.69,3.27-1.15,5.36-1.39c2.09-0.24,4.58-0.36,7.47-0.36c2.89,0,5.3,0.12,7.22,0.36c1.92,0.24,3.38,0.71,4.38,1.39
			c1,0.69,1.56,1.65,1.68,2.89C119.91,15.57,119.61,17.2,118.91,19.2z"/>
		<polygon class="st1" points="188.99,0.61 146.7,0.61 135.84,10.3 153.31,10.3 143.64,37.84 155.16,37.84 164.83,10.3 178.14,10.3 
					"/>
		<path class="st1" d="M232.25,4.62C228.79,1.54,222.53,0,213.48,0c-9.09,0-16.44,1.54-22.05,4.62c-5.61,3.08-9.58,7.94-11.91,14.58
			c-2.34,6.68-1.8,11.56,1.62,14.64c3.43,3.08,9.7,4.62,18.83,4.62c9.09,0,16.44-1.54,22.05-4.62c5.61-3.08,9.58-7.96,11.93-14.64
			C236.28,12.56,235.71,7.7,232.25,4.62z M222.48,19.2c-0.7,2-1.55,3.63-2.55,4.87c-0.99,1.24-2.24,2.22-3.72,2.92
			c-1.49,0.71-3.28,1.18-5.37,1.42c-2.09,0.24-4.58,0.36-7.47,0.36c-2.89,0-5.3-0.12-7.22-0.36c-1.92-0.24-3.38-0.71-4.37-1.42
			c-1-0.7-1.55-1.68-1.67-2.92c-0.12-1.24,0.17-2.87,0.87-4.87c0.7-2,1.55-3.63,2.54-4.87c0.99-1.24,2.23-2.21,3.72-2.89
			c1.48-0.69,3.27-1.15,5.36-1.39c2.09-0.24,4.58-0.36,7.47-0.36c2.89,0,5.3,0.12,7.22,0.36c1.92,0.24,3.38,0.71,4.38,1.39
			c1,0.69,1.56,1.65,1.68,2.89C223.48,15.57,223.19,17.2,222.48,19.2z"/>
		<path class="st1" d="M279.88,0.61l-7.68,21.87L256.57,2c-0.63-0.85-1.26-1.4-1.9-1.64C254.03,0.12,253.36,0,252.66,0
			c-0.82,0-1.65,0.13-2.5,0.39c-0.85,0.26-1.66,0.67-2.43,1.22c-0.77,0.56-1.49,1.28-2.15,2.17c-0.67,0.89-1.21,1.95-1.64,3.17
			l-10.85,30.89h10.46l7.68-21.87l15.63,20.48c0.59,0.85,1.21,1.4,1.85,1.64c0.64,0.24,1.33,0.36,2.07,0.36
			c0.82,0,1.66-0.13,2.53-0.39c0.87-0.26,1.69-0.68,2.47-1.25c0.78-0.57,1.5-1.31,2.16-2.2s1.21-1.95,1.64-3.17L290.4,0.61H279.88z"
			/>
		<polygon class="st1" points="297.35,0.61 284.28,37.84 295.8,37.84 308.87,0.61 		"/>
		<path class="st1" d="M359.04,4.51c-1.13-1.22-2.7-2.18-4.73-2.87c-2.02-0.69-4.48-1.03-7.37-1.03h-23.38l-11.02,9.68h32.06
			c1.78,0,3.03,0.38,3.74,1.14c0.72,0.76,0.85,1.79,0.39,3.09c-0.46,1.3-1.31,2.34-2.57,3.12c-1.26,0.78-2.77,1.17-4.56,1.17h-32.06
			l-6.68,19.03h11.46l3.34-9.52h19.48c2.89,0,5.59-0.33,8.09-1c2.5-0.67,4.74-1.59,6.74-2.78c1.99-1.19,3.69-2.62,5.1-4.31
			c1.41-1.69,2.48-3.57,3.21-5.65c0.73-2.08,0.99-3.97,0.77-5.68C360.84,7.2,360.17,5.73,359.04,4.51z"/>
		<path class="st1" d="M467.48,0.61l-7.68,21.87L444.17,2c-0.63-0.85-1.26-1.4-1.9-1.64C441.64,0.12,440.96,0,440.26,0
			c-0.82,0-1.65,0.13-2.5,0.39c-0.85,0.26-1.66,0.67-2.43,1.22c-0.77,0.56-1.49,1.28-2.15,2.17c-0.67,0.89-1.21,1.95-1.64,3.17
			l-10.85,30.89h10.46l7.68-21.87l15.63,20.48c0.59,0.85,1.21,1.4,1.84,1.64c0.64,0.24,1.33,0.36,2.07,0.36
			c0.82,0,1.66-0.13,2.53-0.39c0.87-0.26,1.69-0.68,2.47-1.25c0.78-0.57,1.5-1.31,2.16-2.2c0.67-0.89,1.21-1.95,1.64-3.17L478,0.61
			H467.48z"/>
		<path class="st1" d="M397.75,0.63c-9.09,0-16.44,1.54-22.05,4.62c-5.61,3.08-9.58,7.94-11.91,14.58
			c-2.34,6.68-1.8,11.56,1.62,14.64c3.43,3.08,9.7,4.62,18.83,4.62c9.09,0,16.44-1.54,22.05-4.62c5.61-3.08,9.58-7.96,11.93-14.64
			c2.33-6.64,1.77-11.5-1.7-14.58C413.06,2.17,406.8,0.63,397.75,0.63z M406.76,19.83c-0.7,2-1.55,3.63-2.55,4.87
			c-0.99,1.24-2.24,2.22-3.72,2.92c-1.49,0.71-3.28,1.18-5.37,1.42c-2.09,0.24-4.58,0.36-7.47,0.36c-2.89,0-5.3-0.12-7.22-0.36
			c-1.92-0.24-3.38-0.71-4.37-1.42c-1-0.7-1.55-1.68-1.67-2.92c-0.12-1.24,0.17-2.87,0.87-4.87c0.7-2,1.55-3.63,2.54-4.87
			c0.99-1.24,2.23-2.21,3.72-2.89c1.48-0.69,3.27-1.15,5.36-1.39c2.09-0.24,4.58-0.36,7.47-0.36s5.3,0.12,7.22,0.36
			c1.92,0.24,3.38,0.71,4.38,1.39c1,0.69,1.56,1.65,1.68,2.89C407.76,16.21,407.46,17.83,406.76,19.83z"/>
	</g>
</g>
</svg>
